<svg width="337" height="59" viewBox="0 0 337 59" fill="none" xmlns="http://www.w3.org/2000/svg">
<g filter="url(#filter0_d_6_13)">
<path fill-rule="evenodd" clip-rule="evenodd" d="M11.5 8C22.3 -2.8 35.6667 0.833337 41 4V13.5C37.8333 11.5 29.7 8.3 22.5 11.5C15.3 14.7 13.5 20.8333 13.5 23.5H31V31.5H14C14.8 36.3 17.3333 39.5 18.5 40.5C21.7 44.5 32.1667 43.5 37 42.5V51C31.6667 52.6667 19.4 54.6 13 49C6.6 43.4 4 35 3.5 31.5H0L1.5 23H4C4.4 16.6 9.16667 10.3333 11.5 8ZM43.5 19L45.5 6H53L51.5 19H57L56 26.5H50C48.4 32.9 48.3333 37.8333 48.5 39.5L52.5 40.5C52.5 43.7 51.3664 46.0901 50 46.5C46 47.7 43 46.5 42 46C39 44.5 39 40.1667 39.5 38L42 26.5H37L38.5 19H43.5ZM79 20.5C78.3333 19.8333 76.1 18.4 72.5 18C68.9 17.6 67 18.25 65.5 19C62.5 20.5 59.4 23.3 57 28.5C56 31 55.8 36.4 57 40C58.2 43.6 61.7615 46.6308 63.5 47.5C66.5 49 71.8 48.9 75 46.5L75.5 40C73.8333 41 71.1549 41.7183 69 41C67.5 40.5 65.2 39.3 64 34.5C63.5 32 64.3 26.5 71.5 24.5C73 24.1667 76.3 24.1 77.5 26.5L79 20.5ZM79 46.5L86 6H93.5L92 20.5C95.6 18.1 99.1667 18.5 100.5 19C104.1 21.4 104.333 24.6667 104 26L103 32.5C102.667 34.3333 102 38.2 102 39C101.5 40.5 103.5 40.5 104.5 40.5C105.3 40.5 104.833 43.8333 104.5 45.5C104.167 46.8333 102.8 49.4 100 49C96.5 48.5 94.6325 46.7649 94 45.5C93.5895 44.6791 93.9793 41.8364 94.305 39.4616C94.3761 38.9435 94.444 38.4477 94.5 38C94.9 34.8 95 31.3333 95 30C95.1667 29.5 95 28.4 93 28C91 27.6 89.5 32.1667 89 34.5L87 46.5H79ZM129.5 34.5C128.333 36.8333 124.9 41.5 120.5 41.5C116.1 41.5 113.333 40.8333 112.5 40.5C111.667 42 110.3 45.4 111.5 47C112.7 48.6 115.333 49 116.5 49C118.833 49.3333 124.2 49.6 127 48C129.8 46.4 134.167 42.3333 136 40.5L147 54.5L156.5 47C156.99 45.0405 157.48 42.2411 157.911 39.7774L157.911 39.7756L157.911 39.775C158.36 37.2104 158.745 35.01 159 34.5H163.5V27H160.5L164 8.5C164.333 7.66667 164.1 5.8 160.5 5C156.9 4.2 152.333 5.33333 150.5 6C148.167 7.16667 142.7 10.5 139.5 14.5C136.3 18.5 134.167 24.1667 133.5 26.5H129L128 34H129.5V34.5ZM210 18L210.5 8C209.167 7.33333 205.2 5.6 200 4C194.8 2.4 189.5 3.33333 187.5 4C184.5 5.33333 178.2 9.2 177 14C175.8 18.8 179.5 22.6667 181.5 24C195.1 30.8 197.5 36.1667 197 38C194.2 43.6 189.5 44.3333 187.5 44C181.5 45.2 173 39.8333 169.5 37L168.5 46C174.1 52.8 188.5 52.8333 195 52C205.4 48 207.333 39.6667 207 36C209 28.8 196.833 21.3333 190.5 18.5C188.1 18.1 186.833 16.3333 186.5 15.5C186.333 13.5 187.8 9.7 195 10.5C202.2 11.3 208 15.8333 210 18ZM217 6L209.5 48.5H218L220.5 38C222.667 42.6667 228.5 52.8 234.5 56L239.5 50.5C235.833 47.1667 228.3 39.1 227.5 33.5L238.5 20H230L222.5 27L224.5 6H217ZM258 33.5C253.6 38.3 247.5 37.8333 245 37C244.6 41 247.833 42.3333 249.5 42.5H255L254.5 49C248.5 49.4 245.667 49.1667 245 49C243.4 49.4 239.667 45.8333 238 44C236.833 42.1667 234.9 37.2 236.5 32C238.1 26.8 241.5 23.5 243 22.5C244.667 21.5 248.7 19.5 251.5 19.5C254.3 19.5 257 20.8333 258 21.5C259.833 23.5 262.4 28.7 258 33.5ZM270.5 7.5L268.5 21H265L264 28H266.5L265 43C265 44.6667 265.9 48.1 269.5 48.5C273.1 48.9 275.333 48 276 47.5C276.833 46.6667 278.4 44.1 278 40.5H274C274.167 37 274.7 29.5 275.5 27.5H281.5L282.5 21H276.5L278.5 7.5H270.5ZM299.5 19.5C302.7 19.5 305.5 20.8333 306.5 21.5V28C305.833 27.6667 305.292 27.3889 304.84 27.1575C303.607 26.5249 303.048 26.238 302.454 26.108C301.961 26 301.445 26 300.5 26C298 26 296 27.5 295 28.5C293.833 29.6667 291.5 32.8 291.5 36C291.5 40 294 41.5 296.5 43C298.5 44.2 301.667 42.5 303 41.5V47C301.833 48.1667 298.4 50.3 294 49.5C289.6 48.7 286.833 45.8333 286 44.5C284.5 42.1 284 37 284.5 33C285.195 27.4432 288.264 23.6771 290.5 22C292.5 20.5 296.3 19.5 299.5 19.5ZM314.5 7.5L307.5 49H315.5L318.5 33.5C318.833 32 320 29.1 322 29.5C324 29.9 324.167 32.6667 324 34C323.333 37.6667 322.2 45.2 323 46C323 47 324 49.3 328 50.5C332 51.7 333.333 46.6667 333.5 44V42.5L330.5 42C330.5 40.8333 330.7 37.9 331.5 35.5C332.667 31.8333 333.5 25 331.5 22.5C330.5 21.5 329.5 20.5 327.5 20.5C325.1 20.5 321.833 22.5 320.5 23.5L322 7.5H314.5ZM151.5 14C147.5 16.4 144.167 23 143 26H152L153.5 15.5C153.9 13.5 152.333 13.6667 151.5 14ZM150.5 34.5H144C144.4 38.1 147.5 40.6667 149 41.5L150.5 34.5ZM246 31C245.667 30.3333 245.6 28.6 248 27C250.4 25.4 251.667 26 252 26.5C252.167 26.6667 252.4 27.5 252 29.5C251.6 31.5 248.833 31.6667 247.5 31.5C247.049 31.5 246.118 31.4 246 31Z" fill="#EFC14B"/>
</g>
<defs>
<filter id="filter0_d_6_13" x="0" y="0.761597" width="336.5" height="58.2384" filterUnits="userSpaceOnUse" color-interpolation-filters="sRGB">
<feFlood flood-opacity="0" result="BackgroundImageFix"/>
<feColorMatrix in="SourceAlpha" type="matrix" values="0 0 0 0 0 0 0 0 0 0 0 0 0 0 0 0 0 0 127 0" result="hardAlpha"/>
<feOffset dx="2" dy="2"/>
<feGaussianBlur stdDeviation="0.5"/>
<feComposite in2="hardAlpha" operator="out"/>
<feColorMatrix type="matrix" values="0 0 0 0 0 0 0 0 0 0 0 0 0 0 0 0 0 0 0.4 0"/>
<feBlend mode="normal" in2="BackgroundImageFix" result="effect1_dropShadow_6_13"/>
<feBlend mode="normal" in="SourceGraphic" in2="effect1_dropShadow_6_13" result="shape"/>
</filter>
</defs>
</svg>
